<svg width="512" height="512" viewBox="0 0 512 512" fill="none" xmlns="http://www.w3.org/2000/svg">
  <defs>
    <linearGradient id="bg" x1="0" y1="0" x2="1" y2="1">
      <stop offset="0%" stop-color="#0f1b3d"/>
      <stop offset="100%" stop-color="#0d3d3a"/>
    </linearGradient>
    <linearGradient id="area" x1="0" y1="1" x2="1" y2="0">
      <stop offset="0%" stop-color="#00e5b0" stop-opacity="0.18"/>
      <stop offset="100%" stop-color="#00e5b0" stop-opacity="0.55"/>
    </linearGradient>
    <filter id="glow"><feGaussianBlur stdDeviation="6" result="b"/><feComposite in="SourceGraphic" in2="b" operator="over"/></filter>
    <clipPath id="clip"><rect width="512" height="512" rx="108"/></clipPath>
  </defs>
  <rect width="512" height="512" rx="108" fill="url(#bg)"/>
  <g clip-path="url(#clip)">
    <polygon points="0,512 0,420 80,380 160,360 240,320 320,290 400,240 512,200 512,512" fill="url(#area)"/>
    <polyline points="0,420 80,380 160,360 240,320 320,290 400,240 512,200" fill="none" stroke="#00e5b0" stroke-width="11" stroke-linecap="round" stroke-linejoin="round" filter="url(#glow)"/>
    <polyline points="0,420 80,380 160,360 240,320 320,290 400,240 512,200" fill="none" stroke="#00e5b0" stroke-width="8" stroke-linecap="round" stroke-linejoin="round"/>
    <circle cx="160" cy="360" r="14" fill="#0d3d3a" stroke="#00e5b0" stroke-width="6"/>
    <circle cx="240" cy="320" r="14" fill="#0d3d3a" stroke="#00e5b0" stroke-width="6"/>
    <circle cx="320" cy="290" r="14" fill="#0d3d3a" stroke="#00e5b0" stroke-width="6"/>
    <circle cx="400" cy="240" r="14" fill="#0d3d3a" stroke="#00e5b0" stroke-width="6"/>
    <text x="256" y="180" text-anchor="middle" font-family="'DM Sans',sans-serif" font-weight="900" font-size="180" fill="#00e5b0">$</text>
    <text x="256" y="180" text-anchor="middle" font-family="'DM Sans',sans-serif" font-weight="900" font-size="180" fill="none" stroke="#00e5b0" stroke-width="3" opacity="0.5"/>
  </g>
</svg>
